<svg xmlns="http://www.w3.org/2000/svg" viewBox="96 410 820 180" width="820" height="220">
  <style>
    .st2 { fill: #FFFFFF; }
  </style>
  <g>
    <path class="st2" d="M359.53,411.13c-28.26,0-55.51,0-84.02,0v178.24h39.72v-50.41h44.31c45.32-0.51,68.24-28.27,68.24-63.91C427.77,440.67,405.11,411.13,359.53,411.13z M359.53,502.54h-44.31v-53.73h44.31c18.84,0,28.52,12.73,28.52,26.99S378.63,502.54,359.53,502.54z"/>
    <path class="st2" d="M524.29,480.14c-22.92-2.04-38.45-5.09-38.45-21.39c0-12.22,14.26-19.61,31.83-19.61c14,0,31.32,4.58,41.25,15.02l24.95-21.9c-18.33-21.39-38.95-27.5-66.45-27.5c-36.67,0-70.28,18.84-70.53,54.23c-0.51,42.01,33.1,51.43,70.79,55c24.19,2.04,36.15,8.91,35.9,23.94c0,12.73-14.51,21.13-35.65,21.13c-18.08,0-40.74-7.64-54.49-25.21l-23.68,24.7c15.02,24.95,47.1,36.92,77.92,36.67c38.45-0.25,75.11-17.57,75.11-57.29C592.78,496.69,559.43,483.19,524.29,480.14z"/>
    <polygon class="st2" points="680.21,411.13 640.49,411.13 640.49,589.37 769.33,589.37 769.33,552.96 680.21,552.96"/>
    <path class="st2" d="M755.84,411.13v35.4h54.23v142.84h39.47V446.53h54.23v-35.4C851.58,411.13,807.78,411.13,755.84,411.13z"/>
    <rect x="108.46" y="553.56" class="st2" width="135.71" height="36.76"/>
    <rect x="108.46" y="410.18" class="st2" width="135.71" height="36.76"/>
    <polygon class="st2" points="153.53,462.04 128.76,478.56 96.22,500.26 96.22,521.95 199.1,521.95 199.1,538.48 223.87,521.95 256.41,500.26 256.41,478.56 153.53,478.56"/>
  </g>
</svg>
